<svg width="32" height="32" viewBox="0 0 32 32" fill="none" xmlns="http://www.w3.org/2000/svg">
<g id="keyboard-01">
<rect width="32" height="32" stroke="black"/>
<path id="Icon" d="M7.99996 13.3333H8.01329M10.6666 18.6667H10.68M13.3333 13.3333H13.3466M16 18.6667H16.0133M18.6666 13.3333H18.68M21.3333 18.6667H21.3466M24 13.3333H24.0133M6.93329 24H25.0666C26.5601 24 27.3068 24 27.8773 23.7094C28.379 23.4537 28.787 23.0457 29.0426 22.544C29.3333 21.9735 29.3333 21.2268 29.3333 19.7333V12.2667C29.3333 10.7732 29.3333 10.0265 29.0426 9.45603C28.787 8.95426 28.379 8.54631 27.8773 8.29065C27.3068 8 26.5601 8 25.0666 8H6.93329C5.43982 8 4.69308 8 4.12265 8.29065C3.62089 8.54631 3.21294 8.95426 2.95728 9.45603C2.66663 10.0265 2.66663 10.7732 2.66663 12.2667V19.7333C2.66663 21.2268 2.66663 21.9735 2.95728 22.544C3.21294 23.0457 3.62089 23.4537 4.12265 23.7094C4.69308 24 5.43982 24 6.93329 24Z" stroke="black" stroke-width="2" stroke-linecap="round" stroke-linejoin="round"/>
</g>
</svg>
