<svg width="32" height="32" viewBox="0 0 32 32" fill="none" xmlns="http://www.w3.org/2000/svg">
<g id="navigation-pointer-02">
<rect width="32" height="32" stroke="black"/>
<path id="Icon" d="M6.71576 28.4337C5.93618 28.7767 5.54639 28.9483 5.30719 28.8729C5.09983 28.8076 4.93733 28.6453 4.87179 28.438C4.79618 28.1989 4.96723 27.8089 5.30933 27.029L15.0178 4.89361C15.3266 4.18951 15.481 3.83746 15.6969 3.7297C15.8844 3.63612 16.1049 3.63612 16.2924 3.7297C16.5083 3.83746 16.6627 4.18951 16.9715 4.89361L26.68 27.029C27.0221 27.8089 27.1931 28.1989 27.1175 28.438C27.052 28.6453 26.8895 28.8076 26.6821 28.8729C26.4429 28.9483 26.0531 28.7767 25.2736 28.4337L16.4242 24.54C16.266 24.4704 16.1869 24.4356 16.1047 24.4218C16.0318 24.4096 15.9575 24.4096 15.8846 24.4218C15.8024 24.4356 15.7233 24.4704 15.5651 24.54L6.71576 28.4337Z" stroke="black" stroke-width="2" stroke-linecap="round" stroke-linejoin="round"/>
</g>
</svg>
