<svg width="32" height="32" viewBox="0 0 32 32" fill="none" xmlns="http://www.w3.org/2000/svg">
<g id="sliders-02">
<rect width="32" height="32" stroke="black"/>
<path id="Icon" d="M6.66667 28L6.66667 20M6.66667 20C8.13943 20 9.33333 18.8061 9.33333 17.3333C9.33333 15.8606 8.13943 14.6667 6.66667 14.6667C5.19391 14.6667 4 15.8606 4 17.3333C4 18.8061 5.19391 20 6.66667 20ZM6.66667 9.33333V4M16 28V20M16 9.33333V4M16 9.33333C14.5272 9.33333 13.3333 10.5272 13.3333 12C13.3333 13.4728 14.5272 14.6667 16 14.6667C17.4728 14.6667 18.6667 13.4728 18.6667 12C18.6667 10.5272 17.4728 9.33333 16 9.33333ZM25.3333 28V22.6667M25.3333 22.6667C26.8061 22.6667 28 21.4728 28 20C28 18.5272 26.8061 17.3333 25.3333 17.3333C23.8606 17.3333 22.6667 18.5272 22.6667 20C22.6667 21.4728 23.8606 22.6667 25.3333 22.6667ZM25.3333 12V4" stroke="black" stroke-width="2" stroke-linecap="round" stroke-linejoin="round"/>
</g>
</svg>
