<svg width="21" height="20" viewBox="0 0 21 20" fill="none" xmlns="http://www.w3.org/2000/svg">
<g id="video-recorder">
<g id="Icon">
<path d="M18.8334 7.44265C18.8334 6.9378 18.8334 6.68538 18.7336 6.56849C18.647 6.46707 18.517 6.41325 18.3841 6.42371C18.2308 6.43577 18.0523 6.61426 17.6953 6.97124L14.6667 9.99984L17.6953 13.0284C18.0523 13.3854 18.2308 13.5639 18.3841 13.576C18.517 13.5864 18.647 13.5326 18.7336 13.4312C18.8334 13.3143 18.8334 13.0619 18.8334 12.557V7.44265Z" stroke="#7F56D9" stroke-width="1.66667" stroke-linecap="round" stroke-linejoin="round"/>
<path d="M2.16675 8.1665C2.16675 6.76637 2.16675 6.06631 2.43923 5.53153C2.67892 5.06112 3.06137 4.67867 3.53177 4.43899C4.06655 4.1665 4.76662 4.1665 6.16675 4.1665H10.6667C12.0669 4.1665 12.7669 4.1665 13.3017 4.43899C13.7721 4.67867 14.1546 5.06112 14.3943 5.53153C14.6667 6.06631 14.6667 6.76637 14.6667 8.1665V11.8332C14.6667 13.2333 14.6667 13.9334 14.3943 14.4681C14.1546 14.9386 13.7721 15.321 13.3017 15.5607C12.7669 15.8332 12.0669 15.8332 10.6667 15.8332H6.16675C4.76662 15.8332 4.06655 15.8332 3.53177 15.5607C3.06137 15.321 2.67892 14.9386 2.43923 14.4681C2.16675 13.9334 2.16675 13.2333 2.16675 11.8332V8.1665Z" stroke="#7F56D9" stroke-width="1.66667" stroke-linecap="round" stroke-linejoin="round"/>
</g>
</g>
</svg>
